<?xml version="1.0" encoding="UTF-8"?> <svg xmlns="http://www.w3.org/2000/svg" width="108" height="32" viewBox="0 0 108 32" fill="none"><path d="M35.3506 15.499V4.57812H42.044V5.38113C42.044 6.18414 41.3626 6.8667 40.561 6.8667H38.036V9.15527H41.3626V9.91813C41.3626 10.7613 40.6812 11.4438 39.8396 11.4438H38.036V15.499H35.3506Z" fill="#0C111A"></path><path d="M46.1721 9.51662H47.3345C47.7753 9.51662 48.096 9.39617 48.3365 9.15527C48.577 8.91437 48.6972 8.59316 48.6972 8.15151C48.6972 7.54925 48.4968 7.14775 48.0559 6.98715C47.8154 6.8667 47.4948 6.82655 47.0539 6.82655H46.1721V9.51662ZM43.5269 15.499V4.57812H47.3345C48.2964 4.57812 49.0178 4.65843 49.4587 4.81903C50.1 5.05993 50.581 5.46143 50.9417 5.98339C51.3024 6.54549 51.4627 7.1879 51.4627 7.99091C51.4627 8.59316 51.3024 9.19542 51.0218 9.75752C50.7413 10.3196 50.3405 10.7211 49.8194 11.0022V11.0423C49.9397 11.1628 50.0599 11.4037 50.2202 11.6847L52.3445 15.499H49.3786L47.4547 11.8052H46.2122V15.499H43.5269Z" fill="#0C111A"></path><path d="M53.5469 15.499V4.57812H60.3605V6.8667H56.2322V8.83407H59.5188V11.1226H56.2322V13.2105H60.601V15.499H53.5469Z" fill="#0C111A"></path><path d="M62.2847 15.499V4.57812H69.1384V6.8667H64.97V8.83407H68.2967V11.1226H64.97V13.2105H69.3388V15.499H62.2847Z" fill="#0C111A"></path><path d="M73.7073 13.2105H74.7895C75.7113 13.2105 76.4728 12.9294 76.9939 12.3673C77.5149 11.8052 77.7955 11.0423 77.7955 9.99843C77.7955 8.99467 77.5149 8.19166 76.9939 7.66971C76.4728 7.14775 75.7514 6.8667 74.8295 6.8667H73.7474V13.2105H73.7073ZM71.062 15.499V4.57812H74.9498C76.6732 4.57812 78.0359 5.05993 79.038 6.02354C80.04 6.98715 80.561 8.31211 80.561 9.99843C80.561 11.7249 80.04 13.0499 79.038 14.0135C78.0359 14.9771 76.6732 15.4589 74.9498 15.4589H71.062V15.499Z" fill="#0C111A"></path><path d="M84.4491 9.9559C84.4491 10.8794 84.7297 11.6824 85.2908 12.2846C85.8519 12.8869 86.5333 13.2081 87.4151 13.2081C88.2567 13.2081 88.9782 12.8869 89.5393 12.2846C90.1004 11.6824 90.381 10.8794 90.381 9.9559C90.381 9.0726 90.1004 8.30974 89.5393 7.70748C88.9782 7.10523 88.2968 6.82417 87.4151 6.82417C86.5734 6.82417 85.8519 7.10523 85.2908 7.70748C84.7297 8.30974 84.4491 9.0726 84.4491 9.9559ZM81.6836 9.9559C81.6836 8.34989 82.2046 7.02493 83.2868 5.98102C84.369 4.93711 85.7317 4.375 87.375 4.375C89.0583 4.375 90.4211 4.89696 91.4631 5.98102C92.5453 7.06508 93.0663 8.39004 93.0663 9.9559C93.0663 11.6021 92.5453 12.927 91.4631 14.0512C90.381 15.1353 89.0183 15.6974 87.375 15.6974C85.6916 15.6974 84.3289 15.1353 83.2868 14.0512C82.2046 12.9672 81.6836 11.6021 81.6836 9.9559Z" fill="#0C111A"></path><path d="M94.3491 15.499L95.2309 4.57812H98.1167L99.7199 9.19542L100.281 11.0022H100.321C100.521 10.2795 100.722 9.67722 100.882 9.19542L102.485 4.57812H105.371L106.253 15.499H103.568L103.247 10.6007C103.207 10.3598 103.207 10.0787 103.207 9.75752C103.207 9.43632 103.207 9.19542 103.207 9.03482V8.75377H103.167C102.926 9.51662 102.726 10.1189 102.566 10.6007L101.403 13.7726H99.1187L97.9563 10.6007L97.3551 8.75377H97.3151C97.3551 9.43632 97.3551 10.0386 97.3151 10.6007L96.9944 15.499H94.3491Z" fill="#0C111A"></path><path d="M13.8276 31.9999C13.8276 31.9999 0 27.9045 0 7.74902V0H27.6553V7.70887C27.6553 27.1818 13.8276 31.9999 13.8276 31.9999Z" fill="#4FAF3B"></path><path d="M21.8034 7.78882H10.6611V14.2129H21.8034V16.1401C21.8034 19.3923 20.8816 22.0021 15.9517 22.0021H10.6611V30.4738C12.5048 31.598 13.8275 31.9995 13.8275 31.9995C13.8275 31.9995 27.6551 27.1815 27.6551 7.70852V1.88672C27.6551 5.1389 26.2122 7.70852 21.8034 7.78882Z" fill="#03532F"></path><path d="M35.3906 26.5008V18.832H38.5569C39.2784 18.832 39.8796 19.0729 40.3606 19.5547C40.8014 20.0365 41.0419 20.6789 41.0419 21.4418C41.0419 22.2047 40.8014 22.8471 40.3606 23.369C39.9197 23.8508 39.3185 24.1319 38.5569 24.1319H37.2744V26.5008H35.3906ZM37.2744 22.5259H38.1962C38.5169 22.5259 38.7573 22.4456 38.9177 22.2448C39.078 22.0441 39.1581 21.8032 39.1581 21.482C39.1581 21.1608 39.078 20.9199 38.9177 20.7191C38.7573 20.5183 38.5169 20.438 38.2363 20.438H37.2744V22.5259Z" fill="#0C111A"></path><path d="M41.2822 26.5008L43.8874 18.832H45.8514L48.4566 26.5008H46.5327L46.0518 24.8947H43.687L43.2462 26.5008H41.2822ZM44.1279 23.369H45.651L45.2101 21.8835L44.8894 20.5585H44.8494C44.7291 21.1206 44.649 21.5623 44.5287 21.8835L44.1279 23.369Z" fill="#0C111A"></path><path d="M50.8615 26.5008V23.369L48.3364 18.832H50.4607L51.3424 20.6789L51.7833 21.763H51.8234C51.9837 21.3615 52.1039 21.0002 52.2643 20.6789L53.106 18.832H55.2302L52.7051 23.369V26.5008H50.8615Z" fill="#0C111A"></path></svg> 